<?xml version="1.0" encoding="UTF-8"?>
<svg id="Layer_2" data-name="Layer 2" xmlns="http://www.w3.org/2000/svg" viewBox="0 0 250 250">
  <defs>
    <style>
      .cls-1 {
        fill: #fff;
      }

      .cls-2 {
        fill: #3ddeed;
      }
    </style>
  </defs>
  <g id="Layer_2-2" data-name="Layer 2">
    <g>
      <g>
        <rect class="cls-1" width="250" height="250" rx="40.52" ry="40.52"/>
        <path class="cls-2" d="m137.55,226.1c7.42-2.8,8.09-1.1,17.21-3.61,11.1-3.05,11.21-5.87,16.94-5.37,5.2.46,9.09,3.14,12.07.95,1.31-.96,1.87-2.44,2.14-3.51,2.03-.58,5.49-1.17,5.65-3.83-7.58-12.66-2.44-30.58-3.27-45.83,12.79-7.87-36.03-16.62-42.04-19.7-1.79-.62-4.77-1.51-8.54-1.94-7.02-.81-10.83.65-24.52,2.37-11.6,1.46-12.07.82-12.12.61-.24-.97,6.14-3.32,6.7-3.53,4.32-1.59,6.78-2.5,10.23-2.49,1.36,0,8.66.19,10.76-.83.11-.05.26-.13.43-.27,1.14-.94.46-2.63,1.09-3.63.67-1.05,2.57-.95,4.32-.83,6.16.41,9.24.62,9.93.76,2.43.47,5.69,1.28,9.42,2.73.37.06,5.81.93,6.3-.83.19-.67-.1-1.53-1.11-2.52-2.37-2.32-6.24-2.33-10.16-2.26-.15,0-.84.02-1.71.06-.75.04-1.08.07-1.25.08-.56.05-1.03.12-1.35.17-4.74-.4-8.61-.45-11.22-.43-23.91.21-25.19.31-25.19.31-1.97.15-5.56.47-7.25-1.62-.36-.45-.74-1.14-1.14-4.75-.3-2.71-.5-4.54-.39-6.63.41-7.92,4.95-14.36,5.42-15.01.8-1.11,4.29-5.78,10.57-8.97,2.27-1.15,4.31-2.19,7.05-2.26,4.21-.1,7.54,1.7,10.65,4.53,10.75,9.78,20.36,15.44,33.42,7.46,22.47.89,15.78-8.95,19.6-20.2,10.85-7.62,4.63-23.86-4.58-29.2.42-1.64,1.8-7.9-1.51-14.63-.41-.83-3.5-6.88-10.28-9.95-2.73-1.24-2.87-.54-5.59-1.61-8.51-3.33-9.09-10.85-16.31-13.41-1.69-.6-4.46-1.18-8.46-.29-9.26,3.85-5.18,5.94-14.87,1.88-12.73-1.4-12.85,13.11-15.94,19.7-12.12,9.35.07,26.1,3.32,37.33,2.51,16.58-25.01,14.24-20.23,53.77-3.48,1.78,1.59,4.07-2.63,4.56-6.2-3.78-8.83,6.65-2.07,4.17,3.12-2.41,2.86.53,3.97,2.35,9.29,21.35-27.8,4.62-19.62,22.3-.21,12.23,1.98,25.8.15,37.41-1.16.89-2.8,2.47-2.91,4.55-.16,2.95,2.86,5.37,6.36,7.61,9.99,6.38,13.9,4.87,21.84,9.27,10.79,5.98,11.59,13.22,19.01,13.09,1.9-.03,4.79-1.13,10.58-3.34,6.12-2.33,7.14-3.28,11.13-4.79Z"/>
      </g>
      <path class="cls-1" d="m125.99,134.46c.02,1.18.21,2.38-.22,3.54-6.53-.15-13.05-.44-19.58-.38-.04-.17-.71-2.12-.35-2.38.27-.01,19.75-.95,20.16-.78Z"/>
    </g>
  </g>
</svg>